<svg width="177" height="177" viewBox="0 0 177 177" fill="none" xmlns="http://www.w3.org/2000/svg">
<path d="M176.5 88.25C176.5 123.844 136.989 176.5 88.25 176.5C39.5109 176.5 0 126.492 0 88.25C0 50.0083 39.5109 0 88.25 0C136.989 0 176.5 48.5375 176.5 88.25Z" fill="#9BD686"/>
<path d="M171.019 87.7019C171.019 120.864 134.207 169.922 88.7981 169.922C43.389 169.922 6.57764 123.331 6.57764 87.7019C6.57764 52.073 43.389 5.48137 88.7981 5.48137C134.207 5.48137 171.019 50.7026 171.019 87.7019Z" fill="#3DB612"/>
<path d="M52.9005 88.086C52.9005 85.8753 53.3942 83.9007 54.3815 82.1622C55.3902 80.4023 56.7531 79.0394 58.4701 78.0736C60.2086 77.0863 62.151 76.5926 64.2973 76.5926C66.8085 76.5926 69.0084 77.2365 70.8972 78.5243C72.7859 79.8121 74.1059 81.5935 74.8571 83.8685H69.6738C69.1587 82.7954 68.4289 81.9905 67.4846 81.454C66.5617 80.9174 65.4885 80.6491 64.2651 80.6491C62.9559 80.6491 61.7862 80.9603 60.7559 81.5827C59.7472 82.1837 58.9531 83.0422 58.3736 84.1583C57.8155 85.2744 57.5365 86.5836 57.5365 88.086C57.5365 89.5669 57.8155 90.8762 58.3736 92.0137C58.9531 93.1298 59.7472 93.999 60.7559 94.6215C61.7862 95.2224 62.9559 95.5229 64.2651 95.5229C65.4885 95.5229 66.5617 95.2546 67.4846 94.718C68.4289 94.16 69.1587 93.3444 69.6738 92.2713H74.8571C74.1059 94.5678 72.7859 96.36 70.8972 97.6477C69.0299 98.914 66.8299 99.5472 64.2973 99.5472C62.151 99.5472 60.2086 99.0643 58.4701 98.0984C56.7531 97.1112 55.3902 95.7483 54.3815 94.0098C53.3942 92.2713 52.9005 90.2967 52.9005 88.086ZM86.8198 81.2608C88.1719 81.2608 89.3739 81.5613 90.4255 82.1622C91.4772 82.7417 92.2928 83.611 92.8723 84.77C93.4733 85.9075 93.7738 87.2811 93.7738 88.8909V99.354H89.2665V89.5026C89.2665 88.086 88.9124 87.0021 88.2041 86.2509C87.4959 85.4783 86.53 85.0919 85.3066 85.0919C84.0618 85.0919 83.0745 85.4783 82.3448 86.2509C81.6365 87.0021 81.2823 88.086 81.2823 89.5026V99.354H76.7751V75.5302H81.2823V83.7398C81.8618 82.9671 82.6345 82.3661 83.6003 81.9369C84.5662 81.4862 85.6393 81.2608 86.8198 81.2608ZM94.9692 90.3718C94.9692 88.5689 95.3234 86.9699 96.0316 85.5748C96.7614 84.1798 97.7379 83.1066 98.9613 82.3554C100.206 81.6042 101.591 81.2286 103.114 81.2286C104.445 81.2286 105.604 81.4969 106.591 82.0335C107.6 82.57 108.405 83.2461 109.006 84.0617V81.5184H113.545V99.354H109.006V96.7463C108.426 97.5833 107.622 98.2809 106.591 98.8389C105.583 99.3755 104.413 99.6438 103.082 99.6438C101.58 99.6438 100.206 99.2574 98.9613 98.4848C97.7379 97.7121 96.7614 96.6282 96.0316 95.2331C95.3234 93.8166 94.9692 92.1961 94.9692 90.3718ZM109.006 90.4362C109.006 89.3416 108.791 88.4079 108.362 87.6353C107.933 86.8412 107.353 86.2402 106.624 85.8324C105.894 85.4031 105.11 85.1885 104.273 85.1885C103.436 85.1885 102.664 85.3924 101.955 85.8002C101.247 86.208 100.668 86.809 100.217 87.6031C99.7876 88.3758 99.573 89.2987 99.573 90.3718C99.573 91.4449 99.7876 92.3893 100.217 93.2049C100.668 93.999 101.247 94.6107 101.955 95.04C102.685 95.4692 103.458 95.6839 104.273 95.6839C105.11 95.6839 105.894 95.48 106.624 95.0722C107.353 94.6429 107.933 94.042 108.362 93.2693C108.791 92.4752 109.006 91.5308 109.006 90.4362ZM121.263 85.2207V93.8488C121.263 94.4498 121.403 94.8897 121.682 95.1688C121.982 95.4263 122.476 95.5551 123.163 95.5551H125.256V99.354H122.422C118.624 99.354 116.724 97.5082 116.724 93.8166V85.2207H114.599V81.5184H116.724V77.1077H121.263V81.5184H125.256V85.2207H121.263Z" fill="#081225"/>
</svg>
