<svg width="22" height="21" viewBox="0 0 22 21" fill="none" xmlns="http://www.w3.org/2000/svg">
<path fill-rule="evenodd" clip-rule="evenodd" d="M20.6155 10.244C20.6155 9.53378 20.5518 8.85086 20.4334 8.19525H11V12.0697H16.3905C16.1583 13.3217 15.4526 14.3825 14.3918 15.0928V17.6059H17.6289C19.5229 15.8622 20.6155 13.2944 20.6155 10.244Z" fill="#4285F4"/>
<path fill-rule="evenodd" clip-rule="evenodd" d="M11 20.0323C13.7043 20.0323 15.9716 19.1354 17.6289 17.6057L14.3918 15.0925C13.4949 15.6935 12.3476 16.0486 11 16.0486C8.39119 16.0486 6.18308 14.2867 5.39544 11.9192H2.04912V14.5143C3.69724 17.7878 7.08453 20.0323 11 20.0323Z" fill="#34A853"/>
<path fill-rule="evenodd" clip-rule="evenodd" d="M5.39547 11.9194C5.19515 11.3184 5.08133 10.6764 5.08133 10.0163C5.08133 9.35612 5.19515 8.71417 5.39547 8.1132V5.5181H2.04915C1.37078 6.87028 0.983795 8.40003 0.983795 10.0163C0.983795 11.6325 1.37078 13.1623 2.04915 14.5145L5.39547 11.9194Z" fill="#FBBC05"/>
<path fill-rule="evenodd" clip-rule="evenodd" d="M11 3.98381C12.4705 3.98381 13.7908 4.48917 14.8289 5.48168L17.7017 2.60886C15.9671 0.992605 13.6998 9.15527e-05 11 9.15527e-05C7.08453 9.15527e-05 3.69724 2.24463 2.04912 5.51811L5.39544 8.11321C6.18308 5.74575 8.39119 3.98381 11 3.98381Z" fill="#EA4335"/>
</svg>
