<svg width="175" height="175" viewBox="0 0 175 175" fill="none" xmlns="http://www.w3.org/2000/svg">
<path d="M175 87.5C175 122.792 135.825 175 87.5 175C39.1751 175 0 125.417 0 87.5C0 49.5833 39.1751 0 87.5 0C135.825 0 175 48.125 175 87.5Z" fill="#9BD686"/>
<path d="M169.565 86.9565C169.565 119.837 133.067 168.478 88.0435 168.478C43.0203 168.478 6.52173 122.283 6.52173 86.9565C6.52173 51.6304 43.0203 5.43478 88.0435 5.43478C133.067 5.43478 169.565 50.2717 169.565 86.9565Z" fill="#3DB612"/>
<path d="M74.3555 75.4584V97.7391H69.8866V88.2587H60.3423V97.7391H55.8734V75.4584H60.3423V84.6197H69.8866V75.4584H74.3555ZM93.278 88.514C93.278 89.1524 93.2354 89.727 93.1503 90.2378H80.2224C80.3288 91.5146 80.7757 92.5148 81.5631 93.2383C82.3505 93.9618 83.3187 94.3236 84.4679 94.3236C86.1277 94.3236 87.3088 93.6107 88.0111 92.1849H92.8311C92.3204 93.8874 91.3415 95.2919 89.8944 96.3985C88.4473 97.4838 86.6704 98.0264 84.5636 98.0264C82.8612 98.0264 81.329 97.654 79.967 96.9092C78.6264 96.1431 77.573 95.0684 76.8069 93.6852C76.0621 92.302 75.6897 90.7059 75.6897 88.8971C75.6897 87.067 76.0621 85.4603 76.8069 84.077C77.5517 82.6938 78.5944 81.6298 79.9351 80.885C81.2758 80.1402 82.8186 79.7677 84.5636 79.7677C86.2448 79.7677 87.7451 80.1295 89.0645 80.8531C90.4051 81.5766 91.4372 82.6087 92.1608 83.9494C92.9056 85.2688 93.278 86.7903 93.278 88.514ZM88.6495 87.2372C88.6282 86.0881 88.2132 85.173 87.4046 84.492C86.5959 83.7898 85.6064 83.4386 84.4359 83.4386C83.3294 83.4386 82.393 83.7791 81.6269 84.4601C80.8821 85.1198 80.4246 86.0455 80.2543 87.2372H88.6495ZM99.0936 74.1178V97.7391H94.6247V74.1178H99.0936ZM106.063 82.6087C106.637 81.8 107.424 81.1297 108.425 80.5977C109.446 80.0444 110.606 79.7677 111.904 79.7677C113.415 79.7677 114.777 80.1402 115.99 80.885C117.224 81.6298 118.192 82.6938 118.895 84.077C119.618 85.439 119.98 87.0244 119.98 88.8332C119.98 90.6421 119.618 92.2488 118.895 93.6533C118.192 95.0365 117.224 96.1112 115.99 96.8773C114.777 97.6434 113.415 98.0264 111.904 98.0264C110.606 98.0264 109.457 97.7604 108.457 97.2284C107.478 96.6964 106.68 96.026 106.063 95.2174V106.166H101.594V80.055H106.063V82.6087ZM115.415 88.8332C115.415 87.7692 115.192 86.8542 114.745 86.0881C114.319 85.3007 113.745 84.7048 113.021 84.3005C112.319 83.8962 111.553 83.694 110.723 83.694C109.914 83.694 109.148 83.9068 108.425 84.3324C107.722 84.7367 107.148 85.3326 106.701 86.12C106.275 86.9074 106.063 87.8331 106.063 88.8971C106.063 89.9611 106.275 90.8868 106.701 91.6742C107.148 92.4616 107.722 93.0681 108.425 93.4937C109.148 93.898 109.914 94.1002 110.723 94.1002C111.553 94.1002 112.319 93.8874 113.021 93.4617C113.745 93.0361 114.319 92.4296 114.745 91.6423C115.192 90.8549 115.415 89.9185 115.415 88.8332Z" fill="#081225"/>
</svg>
