<svg width="151" height="31" viewBox="0 0 151 31" fill="none" xmlns="http://www.w3.org/2000/svg">
<path d="M10.927 16.1646C10.927 28.0528 9.4144 26.6542 17.7342 26.6542C21.3448 26.6542 13.6262 16.1646 27.6601 16.1796C28.4248 16.1238 29.0634 15.4779 29.0634 14.7762C28.8174 9.31888 25.7064 5.67507 17.7342 5.67507C9.41431 5.67507 10.927 4.69516 10.927 16.1646Z" fill="#F93D3D"/>
<path d="M10.9599 16.1796C10.9599 22.135 8.01275 25.3016 3.10102 26.2839C-4.6177 27.4066 4.50444 27.4066 4.50448 15.4779C4.50448 9.48786 9.41614 6.35589 12.7275 5.73637C13.5296 5.63985 14.5692 5.65438 15.0297 5.65436C16.7788 5.65427 17.4153 5.67764 17.4153 5.67764C17.3487 5.77135 16.3387 5.87351 15.164 6.69018C11.6077 9.16265 10.9599 12.3572 10.9599 16.1796Z" fill="#58C470"/>
<path d="M15.4506 4.25079C14.288 4.25079 13.3456 5.19327 13.3456 6.35587C13.3456 6.88555 13.5412 7.36954 13.8641 7.73953C15.1389 6.54934 15.9313 6.12142 17.4494 5.69362C17.1719 4.85548 16.3819 4.25079 15.4506 4.25079Z" fill="black"/>
<path d="M50.8011 4.26936V19.5244C50.8011 21.6414 50.1888 23.2915 48.9642 24.4745C47.7397 25.6368 46.1 26.2179 44.0453 26.2179C41.9698 26.2179 40.2886 25.616 39.0018 24.4122C37.7357 23.2084 37.1027 21.5273 37.1027 19.3687H41.4613C41.482 20.3027 41.6999 21.0291 42.115 21.548C42.5509 22.0669 43.1736 22.3263 43.983 22.3263C44.7717 22.3263 45.3736 22.0773 45.7887 21.5792C46.2038 21.081 46.4114 20.3961 46.4114 19.5244V4.26936H50.8011ZM71.8911 8.75247V26H67.5014V23.8207C66.941 24.5679 66.2042 25.1594 65.291 25.5953C64.3985 26.0104 63.423 26.2179 62.3645 26.2179C61.0154 26.2179 59.822 25.9377 58.7842 25.3773C57.7465 24.7962 56.9267 23.9556 56.3248 22.8556C55.7436 21.7348 55.453 20.4065 55.453 18.8706V8.75247H59.8116V18.248C59.8116 19.6178 60.1541 20.6763 60.839 21.4235C61.5239 22.1499 62.4579 22.5131 63.6409 22.5131C64.8447 22.5131 65.7891 22.1499 66.474 21.4235C67.1589 20.6763 67.5014 19.6178 67.5014 18.248V8.75247H71.8911ZM82.515 26.2802C81.1036 26.2802 79.8376 26.0311 78.7168 25.533C77.596 25.0141 76.7035 24.3188 76.0394 23.4471C75.396 22.5754 75.0431 21.6103 74.9809 20.5518H79.3706C79.4536 21.2159 79.7753 21.7659 80.3357 22.2018C80.9168 22.6377 81.6329 22.8556 82.4838 22.8556C83.314 22.8556 83.9575 22.6896 84.4141 22.3575C84.8914 22.0254 85.1301 21.5999 85.1301 21.081C85.1301 20.5206 84.8395 20.1055 84.2584 19.8357C83.698 19.5451 82.7952 19.2338 81.5499 18.9017C80.263 18.5904 79.2045 18.2687 78.3743 17.9366C77.5649 17.6045 76.8592 17.096 76.2573 16.4111C75.6761 15.7262 75.3856 14.8026 75.3856 13.6403C75.3856 12.6856 75.6554 11.8139 76.195 11.0252C76.7554 10.2365 77.5441 9.61381 78.5611 9.1572C79.5989 8.70059 80.813 8.47228 82.2036 8.47228C84.2584 8.47228 85.8981 8.99116 87.1226 10.0289C88.3472 11.0459 89.0217 12.4261 89.1462 14.1696H84.9745C84.9122 13.4846 84.6216 12.945 84.1027 12.5507C83.6046 12.1356 82.9301 11.928 82.0791 11.928C81.2904 11.928 80.6781 12.0733 80.2423 12.3639C79.8272 12.6544 79.6196 13.0592 79.6196 13.578C79.6196 14.1592 79.9102 14.6054 80.4913 14.9168C81.0725 15.2073 81.9753 15.5083 83.1999 15.8196C84.4452 16.1309 85.4726 16.4526 86.282 16.7847C87.0915 17.1168 87.7868 17.6357 88.3679 18.3414C88.9698 19.0263 89.2811 19.9395 89.3019 21.081C89.3019 22.0773 89.0217 22.9697 88.4613 23.7584C87.9217 24.5471 87.133 25.1698 86.0952 25.6264C85.0782 26.0623 83.8848 26.2802 82.515 26.2802ZM97.6776 12.3327V20.6763C97.6776 21.2574 97.8125 21.6829 98.0824 21.9527C98.3729 22.2018 98.8503 22.3263 99.5145 22.3263H101.538V26H98.7984C95.1247 26 93.2879 24.2151 93.2879 20.6452V12.3327H91.2332V8.75247H93.2879V4.48729H97.6776V8.75247H101.538V12.3327H97.6776Z" fill="#081225"/>
<path d="M120.243 10.994C120.243 12.1563 119.963 13.246 119.402 14.263C118.863 15.28 118.001 16.0998 116.818 16.7224C115.656 17.3451 114.182 17.6564 112.397 17.6564H108.755V26H104.396V4.26936H112.397C114.079 4.26936 115.511 4.55993 116.694 5.14108C117.877 5.72222 118.759 6.52129 119.34 7.5383C119.942 8.5553 120.243 9.70721 120.243 10.994ZM112.211 14.1384C113.414 14.1384 114.307 13.8686 114.888 13.329C115.469 12.7686 115.76 11.9903 115.76 10.994C115.76 8.877 114.577 7.81849 112.211 7.81849H108.755V14.1384H112.211ZM121.94 17.314C121.94 15.5705 122.282 14.0243 122.967 12.6752C123.673 11.3261 124.617 10.2884 125.8 9.56192C127.004 8.83549 128.343 8.47228 129.816 8.47228C131.103 8.47228 132.224 8.73172 133.179 9.2506C134.154 9.76948 134.933 10.4233 135.514 11.212V8.75247H139.903V26H135.514V23.4782C134.953 24.2877 134.175 24.9622 133.179 25.5019C132.203 26.0208 131.072 26.2802 129.785 26.2802C128.332 26.2802 127.004 25.9066 125.8 25.1594C124.617 24.4122 123.673 23.3641 122.967 22.015C122.282 20.6452 121.94 19.0782 121.94 17.314ZM135.514 17.3762C135.514 16.3177 135.306 15.4149 134.891 14.6677C134.476 13.8997 133.916 13.3186 133.21 12.9243C132.504 12.5092 131.747 12.3016 130.937 12.3016C130.128 12.3016 129.381 12.4988 128.696 12.8931C128.011 13.2875 127.45 13.8686 127.014 14.6366C126.599 15.3837 126.392 16.2762 126.392 17.314C126.392 18.3517 126.599 19.265 127.014 20.0537C127.45 20.8216 128.011 21.4131 128.696 21.8282C129.401 22.2433 130.149 22.4509 130.937 22.4509C131.747 22.4509 132.504 22.2537 133.21 21.8593C133.916 21.4442 134.476 20.8631 134.891 20.1159C135.306 19.348 135.514 18.4347 135.514 17.3762ZM148.242 2.96179V26H143.884V2.96179H148.242Z" fill="#58C470"/>
</svg>
