<svg width="176" height="176" viewBox="0 0 176 176" fill="none" xmlns="http://www.w3.org/2000/svg">
<path d="M176 88C176 123.493 136.601 176 88 176C39.3989 176 0 126.133 0 88C0 49.8667 39.3989 0 88 0C136.601 0 176 48.4 176 88Z" fill="#9BD686"/>
<path d="M170.534 87.4534C170.534 120.522 133.827 169.441 88.5466 169.441C43.2661 169.441 6.55902 122.981 6.55902 87.4534C6.55902 51.9255 43.2661 5.46585 88.5466 5.46585C133.827 5.46585 170.534 50.559 170.534 87.4534Z" fill="#3DB612"/>
<path d="M69.322 98.1491H64.8276L54.6509 82.7717V98.1491H50.1564V75.709H54.6509L64.8276 91.1185V75.709H69.322V98.1491ZM88.3705 88.8713C88.3705 89.5133 88.3277 90.0912 88.2421 90.6048H75.2403C75.3473 91.889 75.7967 92.8949 76.5886 93.6225C77.3805 94.3502 78.3543 94.714 79.51 94.714C81.1794 94.714 82.3672 93.9971 83.0735 92.5631H87.921C87.4074 94.2753 86.4229 95.6878 84.9675 96.8007C83.5122 97.8923 81.7251 98.438 79.6063 98.438C77.8941 98.438 76.3532 98.0635 74.9835 97.3144C73.6351 96.5439 72.5757 95.4631 71.8053 94.072C71.0562 92.6808 70.6816 91.0757 70.6816 89.2565C70.6816 87.4159 71.0562 85.8001 71.8053 84.4089C72.5543 83.0178 73.603 81.9477 74.9514 81.1986C76.2997 80.4495 77.8513 80.075 79.6063 80.075C81.2971 80.075 82.8059 80.4388 84.1329 81.1665C85.4812 81.8942 86.5192 82.9322 87.2469 84.2805C87.9959 85.6074 88.3705 87.1377 88.3705 88.8713ZM83.7155 87.5871C83.6941 86.4314 83.2768 85.5111 82.4635 84.8263C81.6502 84.12 80.655 83.7669 79.4779 83.7669C78.365 83.7669 77.4233 84.1093 76.6528 84.7942C75.9038 85.4576 75.4436 86.3886 75.2724 87.5871H83.7155ZM114.38 80.3639L109.179 98.1491H104.332L101.089 85.7252L97.8469 98.1491H92.9672L87.7344 80.3639H92.2931L95.4392 93.9115L98.8421 80.3639H103.593L106.932 93.8794L110.078 80.3639H114.38ZM121.692 98.438C120.236 98.438 118.931 98.1812 117.775 97.6675C116.619 97.1325 115.699 96.4155 115.014 95.5166C114.351 94.6177 113.987 93.6225 113.923 92.531H118.449C118.535 93.2159 118.866 93.783 119.444 94.2325C120.044 94.6819 120.782 94.9067 121.659 94.9067C122.516 94.9067 123.179 94.7354 123.65 94.393C124.142 94.0506 124.388 93.6118 124.388 93.0768C124.388 92.4989 124.089 92.0709 123.489 91.7927C122.911 91.493 121.98 91.172 120.696 90.8296C119.369 90.5085 118.278 90.1768 117.422 89.8344C116.587 89.4919 115.859 88.9676 115.239 88.2613C114.64 87.555 114.34 86.6026 114.34 85.4041C114.34 84.4196 114.618 83.5207 115.175 82.7075C115.752 81.8942 116.566 81.2521 117.614 80.7813C118.685 80.3104 119.937 80.075 121.371 80.075C123.489 80.075 125.18 80.6101 126.443 81.6802C127.706 82.7289 128.401 84.1521 128.53 85.9499H124.228C124.163 85.2436 123.864 84.6872 123.329 84.2805C122.815 83.8525 122.12 83.6385 121.242 83.6385C120.429 83.6385 119.797 83.7883 119.348 84.0879C118.92 84.3875 118.706 84.8049 118.706 85.3399C118.706 85.9392 119.006 86.3993 119.605 86.7204C120.204 87.02 121.135 87.3303 122.398 87.6513C123.682 87.9724 124.741 88.3041 125.576 88.6465C126.411 88.989 127.128 89.524 127.727 90.2517C128.348 90.958 128.669 91.8997 128.69 93.0768C128.69 94.1041 128.401 95.0244 127.823 95.8377C127.267 96.6509 126.454 97.293 125.383 97.7638C124.335 98.2133 123.104 98.438 121.692 98.438Z" fill="#081225"/>
</svg>
