<svg width="536" height="111" viewBox="0 0 536 111" fill="none" xmlns="http://www.w3.org/2000/svg">
<path d="M39.4233 57.8594C39.4233 100.062 34.0535 95.0974 63.5887 95.0974C76.4065 95.0974 49.0055 57.8594 98.8255 57.9125C101.54 57.7144 103.808 55.4215 103.808 52.9305C102.934 33.557 91.8901 20.6215 63.5887 20.6215C34.0532 20.6215 39.4234 17.1428 39.4233 57.8594Z" fill="#F93D3D"/>
<path d="M39.5397 57.9124C39.5397 79.0541 29.0775 90.2955 11.6408 93.7829C-15.7606 97.7685 16.623 97.7685 16.6231 55.4214C16.6231 34.1569 34.0595 23.0384 45.8149 20.8391C48.6621 20.4965 52.3528 20.5481 53.9875 20.548C60.1969 20.5477 62.4564 20.6306 62.4564 20.6306C62.2199 20.9633 58.6345 21.326 54.4644 24.2252C41.8394 33.0024 39.5397 44.3431 39.5397 57.9124Z" fill="#58C470"/>
<path d="M55.482 15.5654C51.3548 15.5654 48.009 18.9112 48.009 23.0384C48.009 24.9188 48.7035 26.637 49.85 27.9504C54.3755 23.7252 57.1884 22.2061 62.5777 20.6875C61.5924 17.712 58.7879 15.5654 55.482 15.5654Z" fill="black"/>
<path d="M180.976 16.8564V71.0116C180.976 78.5271 178.802 84.3847 174.455 88.5845C170.108 92.7106 164.287 94.7736 156.993 94.7736C149.625 94.7736 143.657 92.6369 139.088 88.3634C134.594 84.09 132.347 78.1218 132.347 70.459H147.819C147.893 73.7747 148.667 76.3535 150.14 78.1955C151.688 80.0375 153.898 80.9585 156.772 80.9585C159.572 80.9585 161.708 80.0744 163.182 78.306C164.656 76.5377 165.392 74.1062 165.392 71.0116V16.8564H180.976ZM255.845 32.7714V94H240.262V86.2635C238.272 88.916 235.657 91.0159 232.415 92.5632C229.247 94.0368 225.784 94.7736 222.026 94.7736C217.237 94.7736 213 93.779 209.316 91.7896C205.632 89.7265 202.722 86.7425 200.585 82.8374C198.522 78.8586 197.49 74.1431 197.49 68.6907V32.7714H212.963V66.4803C212.963 71.3432 214.179 75.1009 216.61 77.7534C219.042 80.3322 222.357 81.6216 226.557 81.6216C230.831 81.6216 234.183 80.3322 236.615 77.7534C239.046 75.1009 240.262 71.3432 240.262 66.4803V32.7714H255.845ZM293.56 94.9947C288.55 94.9947 284.055 94.1105 280.076 92.3422C276.098 90.5002 272.929 88.0319 270.572 84.9373C268.287 81.8427 267.035 78.4165 266.814 74.6588H282.397C282.692 77.0166 283.834 78.9691 285.823 80.5164C287.886 82.0637 290.428 82.8374 293.449 82.8374C296.397 82.8374 298.681 82.2479 300.302 81.069C301.996 79.8902 302.844 78.3797 302.844 76.5377C302.844 74.5483 301.812 73.0747 299.749 72.1168C297.76 71.0853 294.555 69.9801 290.134 68.8012C285.566 67.696 281.808 66.554 278.861 65.3751C275.987 64.1962 273.482 62.391 271.345 59.9595C269.282 57.5281 268.251 54.2493 268.251 50.1232C268.251 46.7339 269.208 43.6393 271.124 40.8394C273.114 38.0395 275.913 35.8291 279.524 34.2081C283.208 32.5872 287.518 31.7767 292.455 31.7767C299.749 31.7767 305.57 33.6187 309.917 37.3027C314.264 40.9131 316.659 45.8129 317.101 52.002H302.291C302.07 49.5706 301.038 47.6549 299.196 46.2549C297.428 44.7813 295.034 44.0445 292.013 44.0445C289.213 44.0445 287.039 44.5603 285.492 45.5918C284.018 46.6233 283.281 48.0601 283.281 49.9021C283.281 51.9652 284.313 53.5493 286.376 54.6545C288.439 55.6861 291.644 56.7544 295.991 57.8596C300.412 58.9648 304.059 60.1069 306.933 61.2858C309.806 62.4647 312.275 64.3067 314.338 66.8118C316.475 69.2433 317.58 72.4852 317.653 76.5377C317.653 80.0744 316.659 83.2426 314.669 86.0425C312.754 88.8424 309.954 91.0528 306.27 92.6737C302.659 94.221 298.423 94.9947 293.56 94.9947ZM347.387 45.4813V75.1009C347.387 77.164 347.866 78.6744 348.824 79.6323C349.856 80.5164 351.55 80.9585 353.908 80.9585H361.092V94H351.366C338.325 94 331.804 87.6635 331.804 74.9904V45.4813H324.509V32.7714H331.804V17.63H347.387V32.7714H361.092V45.4813H347.387Z" fill="#081225"/>
<path d="M427.494 40.7289C427.494 44.855 426.499 48.7232 424.51 52.3336C422.594 55.9439 419.536 58.8543 415.336 61.0647C411.21 63.2752 405.979 64.3804 399.642 64.3804H386.711V94H371.238V16.8564H399.642C405.61 16.8564 410.694 17.8879 414.894 19.9509C419.094 22.014 422.225 24.8507 424.288 28.4611C426.425 32.0714 427.494 36.1607 427.494 40.7289ZM398.979 51.8915C403.253 51.8915 406.421 50.9337 408.484 49.018C410.547 47.0286 411.579 44.2656 411.579 40.7289C411.579 33.2135 407.379 29.4557 398.979 29.4557H386.711V51.8915H398.979ZM433.518 63.1646C433.518 56.9755 434.734 51.4863 437.165 46.697C439.67 41.9078 443.023 38.2237 447.223 35.6449C451.496 33.0661 456.249 31.7767 461.48 31.7767C466.048 31.7767 470.027 32.6977 473.416 34.5397C476.879 36.3817 479.642 38.7027 481.705 41.5025V32.7714H497.289V94H481.705V85.0478C479.716 87.9213 476.953 90.316 473.416 92.2317C469.953 94.0737 465.938 94.9947 461.369 94.9947C456.212 94.9947 451.496 93.6684 447.223 91.0159C443.023 88.3634 439.67 84.6426 437.165 79.8533C434.734 74.9904 433.518 69.4275 433.518 63.1646ZM481.705 63.3857C481.705 59.628 480.968 56.4229 479.495 53.7704C478.021 51.0442 476.032 48.9811 473.527 47.5812C471.021 46.1076 468.332 45.3708 465.459 45.3708C462.585 45.3708 459.933 46.0707 457.501 47.4707C455.07 48.8706 453.08 50.9337 451.533 53.6598C450.059 56.3123 449.323 59.4806 449.323 63.1646C449.323 66.8487 450.059 70.0906 451.533 72.8905C453.08 75.6167 455.07 77.7166 457.501 79.1902C460.006 80.6638 462.659 81.4006 465.459 81.4006C468.332 81.4006 471.021 80.7006 473.527 79.3007C476.032 77.8271 478.021 75.764 479.495 73.1115C480.968 70.3853 481.705 67.1434 481.705 63.3857ZM526.891 12.2145V94H511.418V12.2145H526.891Z" fill="#58C470"/>
</svg>
