<svg width="176" height="176" viewBox="0 0 176 176" fill="none" xmlns="http://www.w3.org/2000/svg">
<path d="M176 88C176 123.493 136.601 176 88 176C39.3989 176 0 126.133 0 88C0 49.8667 39.3989 0 88 0C136.601 0 176 48.4 176 88Z" fill="#9BD686"/>
<path d="M170.534 87.4534C170.534 120.522 133.827 169.441 88.5466 169.441C43.2661 169.441 6.55902 122.981 6.55902 87.4534C6.55902 51.9255 43.2661 5.46585 88.5466 5.46585C133.827 5.46585 170.534 50.559 170.534 87.4534Z" fill="#3DB612"/>
<path d="M48.6401 98.3738C47.0777 98.3738 45.6652 98.1062 44.4025 97.5712C43.1611 97.0361 42.1766 96.2657 41.449 95.2598C40.7213 94.2539 40.3468 93.066 40.3254 91.6963H45.1408C45.205 92.6166 45.5261 93.3443 46.1039 93.8793C46.7032 94.4144 47.5165 94.6819 48.5438 94.6819C49.5925 94.6819 50.4165 94.4358 51.0157 93.9435C51.615 93.4299 51.9146 92.7664 51.9146 91.9531C51.9146 91.2897 51.7113 90.7439 51.3046 90.3159C50.898 89.8878 50.3844 89.5561 49.7637 89.3207C49.1644 89.0639 48.3297 88.7856 47.2596 88.486C45.8043 88.058 44.6165 87.6406 43.6962 87.234C42.7973 86.8059 42.0161 86.1746 41.3527 85.3399C40.7106 84.4838 40.3896 83.3495 40.3896 81.937C40.3896 80.61 40.7213 79.4543 41.3848 78.4698C42.0482 77.4853 42.9792 76.7362 44.1777 76.2226C45.3763 75.6875 46.746 75.42 48.2869 75.42C50.5984 75.42 52.4711 75.9872 53.905 77.1215C55.3603 78.2344 56.1629 79.7967 56.3127 81.8085H51.3688C51.326 81.0381 50.9943 80.4067 50.3736 79.9145C49.7744 79.4008 48.9718 79.144 47.9659 79.144C47.0884 79.144 46.3822 79.3687 45.8471 79.8181C45.3335 80.2676 45.0766 80.9204 45.0766 81.7764C45.0766 82.3757 45.2692 82.8786 45.6545 83.2853C46.0611 83.6705 46.5534 83.9916 47.1312 84.2484C47.7305 84.4838 48.5652 84.762 49.6353 85.0831C51.0906 85.5111 52.2784 85.9391 53.1987 86.3672C54.119 86.7952 54.9109 87.4373 55.5744 88.2934C56.2378 89.1495 56.5696 90.2731 56.5696 91.6642C56.5696 92.8627 56.2592 93.9756 55.6386 95.0029C55.0179 96.0302 54.1083 96.8542 52.9098 97.4749C51.7113 98.0741 50.288 98.3738 48.6401 98.3738ZM63.7727 84.0558V92.6594C63.7727 93.2587 63.9118 93.6974 64.19 93.9756C64.4897 94.2325 64.9819 94.3609 65.6668 94.3609H67.7535V98.149H64.9284C61.1402 98.149 59.2462 96.3085 59.2462 92.6273V84.0558H57.1273V80.3639H59.2462V75.9658H63.7727V80.3639H67.7535V84.0558H63.7727ZM76.9573 98.438C75.2451 98.438 73.7042 98.0634 72.3345 97.3144C70.9647 96.5439 69.8839 95.4631 69.092 94.0719C68.3216 92.6808 67.9363 91.0757 67.9363 89.2565C67.9363 87.4373 68.3323 85.8321 69.1241 84.441C69.9374 83.0499 71.0396 81.9798 72.4308 81.2307C73.8219 80.4602 75.3736 80.075 77.0857 80.075C78.7979 80.075 80.3495 80.4602 81.7407 81.2307C83.1318 81.9798 84.2233 83.0499 85.0152 84.441C85.8285 85.8321 86.2351 87.4373 86.2351 89.2565C86.2351 91.0757 85.8178 92.6808 84.9831 94.0719C84.1698 95.4631 83.0569 96.5439 81.6444 97.3144C80.2532 98.0634 78.6909 98.438 76.9573 98.438ZM76.9573 94.5214C77.7706 94.5214 78.5304 94.3288 79.2366 93.9435C79.9643 93.5369 80.5422 92.9376 80.9702 92.1458C81.3983 91.3539 81.6123 90.3908 81.6123 89.2565C81.6123 87.5657 81.1628 86.2709 80.2639 85.372C79.3865 84.4517 78.3056 83.9916 77.0215 83.9916C75.7374 83.9916 74.6566 84.4517 73.7791 85.372C72.923 86.2709 72.495 87.5657 72.495 89.2565C72.495 90.9472 72.9123 92.2528 73.747 93.1731C74.6031 94.0719 75.6732 94.5214 76.9573 94.5214ZM92.1002 83.1248C92.6781 82.1831 93.4271 81.4447 94.3474 80.9097C95.2891 80.3746 96.3592 80.1071 97.5578 80.1071V84.8262H96.3699C94.9574 84.8262 93.8873 85.158 93.1596 85.8214C92.4534 86.4849 92.1002 87.6406 92.1002 89.2886V98.149H87.6058V80.3639H92.1002V83.1248ZM100.938 78.2451C100.146 78.2451 99.4828 77.999 98.9477 77.5067C98.4341 76.9931 98.1772 76.3617 98.1772 75.6126C98.1772 74.8636 98.4341 74.2429 98.9477 73.7507C99.4828 73.237 100.146 72.9802 100.938 72.9802C101.73 72.9802 102.383 73.237 102.896 73.7507C103.431 74.2429 103.699 74.8636 103.699 75.6126C103.699 76.3617 103.431 76.9931 102.896 77.5067C102.383 77.999 101.73 78.2451 100.938 78.2451ZM103.153 80.3639V98.149H98.6588V80.3639H103.153ZM122.201 88.8712C122.201 89.5133 122.158 90.0912 122.072 90.6048H109.07C109.178 91.8889 109.627 92.8948 110.419 93.6225C111.211 94.3502 112.185 94.714 113.34 94.714C115.01 94.714 116.197 93.997 116.904 92.5631H121.751C121.238 94.2753 120.253 95.6878 118.798 96.8007C117.342 97.8922 115.555 98.438 113.437 98.438C111.724 98.438 110.183 98.0634 108.814 97.3144C107.465 96.5439 106.406 95.4631 105.635 94.0719C104.886 92.6808 104.512 91.0757 104.512 89.2565C104.512 87.4159 104.886 85.8 105.635 84.4089C106.385 83.0178 107.433 81.9477 108.782 81.1986C110.13 80.4495 111.682 80.075 113.437 80.075C115.127 80.075 116.636 80.4388 117.963 81.1665C119.311 81.8942 120.349 82.9322 121.077 84.2805C121.826 85.6074 122.201 87.1377 122.201 88.8712ZM117.546 87.5871C117.524 86.4314 117.107 85.5111 116.294 84.8262C115.48 84.12 114.485 83.7668 113.308 83.7668C112.195 83.7668 111.254 84.1093 110.483 84.7941C109.734 85.4576 109.274 86.3886 109.103 87.5871H117.546ZM130.361 98.438C128.906 98.438 127.6 98.1812 126.444 97.6675C125.289 97.1324 124.368 96.4155 123.683 95.5166C123.02 94.6177 122.656 93.6225 122.592 92.531H127.118C127.204 93.2159 127.536 93.783 128.114 94.2325C128.713 94.6819 129.451 94.9066 130.329 94.9066C131.185 94.9066 131.848 94.7354 132.319 94.393C132.811 94.0505 133.058 93.6118 133.058 93.0768C133.058 92.4989 132.758 92.0709 132.159 91.7926C131.581 91.493 130.65 91.172 129.366 90.8295C128.039 90.5085 126.947 90.1768 126.091 89.8343C125.257 89.4919 124.529 88.9675 123.908 88.2613C123.309 87.555 123.009 86.6026 123.009 85.4041C123.009 84.4196 123.288 83.5207 123.844 82.7074C124.422 81.8942 125.235 81.2521 126.284 80.7812C127.354 80.3104 128.606 80.075 130.04 80.075C132.159 80.075 133.849 80.61 135.112 81.6801C136.375 82.7288 137.07 84.1521 137.199 85.9499H132.897C132.833 85.2436 132.533 84.6871 131.998 84.2805C131.485 83.8524 130.789 83.6384 129.911 83.6384C129.098 83.6384 128.467 83.7882 128.017 84.0879C127.589 84.3875 127.375 84.8048 127.375 85.3399C127.375 85.9391 127.675 86.3993 128.274 86.7203C128.873 87.02 129.804 87.3303 131.067 87.6513C132.351 87.9723 133.411 88.3041 134.245 88.6465C135.08 88.9889 135.797 89.524 136.396 90.2517C137.017 90.9579 137.338 91.8996 137.359 93.0768C137.359 94.1041 137.07 95.0243 136.493 95.8376C135.936 96.6509 135.123 97.293 134.053 97.7638C133.004 98.2133 131.773 98.438 130.361 98.438Z" fill="#081225"/>
</svg>
