<svg id="visual" viewBox="0 0 900 600" width="900" height="600" xmlns="http://www.w3.org/2000/svg" xmlns:xlink="http://www.w3.org/1999/xlink" version="1.1"><rect x="0" y="0" width="900" height="600" fill="#58C470"></rect><path d="M0 477L21.5 472C43 467 86 457 128.8 462C171.7 467 214.3 487 257.2 497.7C300 508.3 343 509.7 385.8 503.5C428.7 497.3 471.3 483.7 514.2 470.7C557 457.7 600 445.3 642.8 436C685.7 426.7 728.3 420.3 771.2 423.5C814 426.7 857 439.3 878.5 445.7L900 452L900 601L878.5 601C857 601 814 601 771.2 601C728.3 601 685.7 601 642.8 601C600 601 557 601 514.2 601C471.3 601 428.7 601 385.8 601C343 601 300 601 257.2 601C214.3 601 171.7 601 128.8 601C86 601 43 601 21.5 601L0 601Z" fill="#4AA45E" stroke-linecap="round" stroke-linejoin="miter"></path></svg>